<?xml version="1.0" encoding="UTF-8"?>
<svg width="28px" height="39px" viewBox="0 0 28 39" version="1.1" xmlns="http://www.w3.org/2000/svg" xmlns:xlink="http://www.w3.org/1999/xlink">
    <title>编组</title>
    <defs>
        <path d="M5.19596373,1.06492587 L0.0526848,25.24928 C-0.0615253333,25.7859243 0.347886933,26.2911488 0.8963584,26.2911488 L0.8963584,26.2911488 L4.3104768,26.2911488 C4.64295253,26.2911488 4.94544213,26.1005995 5.08880213,25.8003797 L5.08880213,25.8003797 L12.6625109,9.9520512 L7.53380693,0.637474133 C7.27169707,0.243950933 6.86610773,0.0605694809 6.4641024,0.0605694809 L6.4641024,0.0605694809 C5.90093653,0.0605694809 5.34458027,0.4196864 5.19596373,1.06492587" id="path-1"></path>
        <path d="M5.21567573,0.601634133 L0.0872106667,9.9162112 L1.661184,9.92314027 C2.2392832,9.925888 2.74940587,10.3011328 2.92466347,10.8518741 L2.92466347,10.8518741 L7.8439424,25.7650176 C7.98718293,26.0645205 8.29026987,26.2554283 8.62226773,26.2554283 L8.62226773,26.2554283 L11.8533632,26.2554283 C12.4017152,26.2554283 12.8112469,25.7502037 12.6967979,25.2139179 L12.6967979,25.2139179 L7.5536384,1.02908587 C7.4049024,0.384324267 6.84854613,0.0244906667 6.28585813,0.0244906667 L6.28585813,0.0244906667 C5.8834944,0.0253269333 5.478144,0.2082304 5.21567573,0.601634133" id="path-3"></path>
        <path d="M0.7773696,0.113851733 C0.140612267,0.113851733 -0.224238933,0.838536533 0.153992533,1.35069013 L0.153992533,1.35069013 L1.74923093,3.50646613 C2.05948587,3.92495787 2.68596907,3.92495787 2.9958656,3.50646613 L2.9958656,3.50646613 L4.5914624,1.35069013 C4.9699328,0.838536533 4.60448427,0.113851733 3.9682048,0.113851733 L3.9682048,0.113851733 L0.7773696,0.113851733 Z" id="path-5"></path>
        <polygon id="path-7" points="0.0994798933 0.0788957867 26.62777 0.0788957867 26.62777 9.6768 0.0994798933 9.6768"></polygon>
    </defs>
    <g id="页面-1" stroke="none" stroke-width="1" fill="none" fill-rule="evenodd">
        <g id="首页" transform="translate(-24.000000, -14.000000)">
            <g id="编组" transform="translate(24.000000, 14.000000)">
                <g transform="translate(0.000000, 0.078729)">
                    <mask id="mask-2" fill="white">
                        <use xlink:href="#path-1"></use>
                    </mask>
                    <g id="Clip-6"></g>
                    <path d="M5.19596373,1.06492587 L0.0526848,25.24928 C-0.0615253333,25.7859243 0.347886933,26.2911488 0.8963584,26.2911488 L0.8963584,26.2911488 L4.3104768,26.2911488 C4.64295253,26.2911488 4.94544213,26.1005995 5.08880213,25.8003797 L5.08880213,25.8003797 L12.6625109,9.9520512 L7.53380693,0.637474133 C7.27169707,0.243950933 6.86610773,0.0605694809 6.4641024,0.0605694809 L6.4641024,0.0605694809 C5.90093653,0.0605694809 5.34458027,0.4196864 5.19596373,1.06492587" id="Fill-5" fill="#FFFFFF" mask="url(#mask-2)"></path>
                </g>
                <g transform="translate(14.694400, 0.078729)">
                    <mask id="mask-4" fill="white">
                        <use xlink:href="#path-3"></use>
                    </mask>
                    <g id="Clip-8"></g>
                    <path d="M5.21567573,0.601634133 L0.0872106667,9.9162112 L1.661184,9.92314027 C2.2392832,9.925888 2.74940587,10.3011328 2.92466347,10.8518741 L2.92466347,10.8518741 L7.8439424,25.7650176 C7.98718293,26.0645205 8.29026987,26.2554283 8.62226773,26.2554283 L8.62226773,26.2554283 L11.8533632,26.2554283 C12.4017152,26.2554283 12.8112469,25.7502037 12.6967979,25.2139179 L12.6967979,25.2139179 L7.5536384,1.02908587 C7.4049024,0.384324267 6.84854613,0.0244906667 6.28585813,0.0244906667 L6.28585813,0.0244906667 C5.8834944,0.0253269333 5.478144,0.2082304 5.21567573,0.601634133" id="Fill-7" fill="#FFFFFF" mask="url(#mask-4)"></path>
                </g>
                <g transform="translate(11.349333, 20.746462)">
                    <mask id="mask-6" fill="white">
                        <use xlink:href="#path-5"></use>
                    </mask>
                    <g id="Clip-10"></g>
                    <path d="M0.7773696,0.113851733 C0.140612267,0.113851733 -0.224238933,0.838536533 0.153992533,1.35069013 L0.153992533,1.35069013 L1.74923093,3.50646613 C2.05948587,3.92495787 2.68596907,3.92495787 2.9958656,3.50646613 L2.9958656,3.50646613 L4.5914624,1.35069013 C4.9699328,0.838536533 4.60448427,0.113851733 3.9682048,0.113851733 L3.9682048,0.113851733 L0.7773696,0.113851733 Z" id="Fill-9" fill="#FFFFFF" mask="url(#mask-6)"></path>
                </g>
                <g transform="translate(0.358400, 28.153395)">
                    <mask id="mask-8" fill="white">
                        <use xlink:href="#path-7"></use>
                    </mask>
                    <g id="Clip-12"></g>
                    <path d="M21.7401498,0.0788957867 C20.1608004,3.09614592 17.0052079,5.15826005 13.3635055,5.15826005 C9.72216149,5.15826005 6.56633003,3.09614592 4.98721963,0.0788957867 L0.0994798933,0.0788957867 C1.93699669,5.65094059 7.17608789,9.67684779 13.3635055,9.67684779 C19.551162,9.67684779 24.7902532,5.65094059 26.62777,0.0788957867 L21.7401498,0.0788957867 Z" id="Fill-11" fill="#E73E3A" mask="url(#mask-8)"></path>
                </g>
            </g>
        </g>
    </g>
</svg>